<?xml version="1.0"?>
<svg xmlns="http://www.w3.org/2000/svg" xmlns:xlink="http://www.w3.org/1999/xlink" xmlns:svgjs="http://svgjs.com/svgjs" version="1.1" width="512" height="512" x="0" y="0" viewBox="0 0 512 512" style="enable-background:new 0 0 512 512" xml:space="preserve" class=""><g><defs xmlns="http://www.w3.org/2000/svg"><linearGradient id="linear-gradient" x1="256" y1="496.073" x2="256" y2="16" gradientUnits="userSpaceOnUse"><stop stop-opacity="1" stop-color="#009942" offset="0"/><stop stop-opacity="1" stop-color="#009942" offset="0.2548262548262548"/><stop stop-opacity="1" stop-color="#eeff52" offset="0.7683397683397684"/><stop stop-opacity="1" stop-color="#eeff52" offset="1"/></linearGradient></defs><path xmlns="http://www.w3.org/2000/svg" d="M347.831,120.977c-30.579-16.679-49.2-35.858-55.344-57-5.948-20.467,2.138-35.425,2.459-36.007a8,8,0,0,0-7.416-11.955c-2.327.137-57.356,3.813-89.246,43.947-15.053,18.944-22.281,42.617-21.606,70.6a117.468,117.468,0,0,1-8.7-12.654c-.824-42.261-26.434-59.82-27.541-60.558a8,8,0,0,0-8.016-.5c-28.652,14.326-34.768,44.679-36.07,57.407C74.766,122.6,54.8,137.65,39.685,157.089,24.633,176.441,16,197.914,16,216c0,22.677,26.866,27.562,50.569,31.871,10.386,1.889,21.125,3.841,28.556,6.993C104,258.63,104,262.257,104,264c0,6.757-3.564,24.655-36.576,44.865A24.1,24.1,0,0,0,56,329.306V376a24,24,0,0,0,48,0v-8a8.009,8.009,0,0,1,8-8h38.4c-5.071,34.962,6.17,60.181,17.064,75.613A105.2,105.2,0,0,0,177.723,448H160a24,24,0,0,0,0,48l171.824.073c16.247,0,74.925-3,117.919-43.9C480.437,422.979,496,381.2,496,328c0-47.664-13.312-87.874-40.7-122.925C431.642,174.787,397.492,148.064,347.831,120.977ZM160,480a8,8,0,0,1,0-16h40a8,8,0,0,0,3.991-14.934,84.84,84.84,0,0,1-23.838-23.226c-14.26-20.533-18.413-44.793-12.343-72.1.008-.038.022-.1.029-.141.057-.272,5.9-27.359,29.667-41.049,18.2-10.483,42.413-10.807,71.964-.955a8,8,0,0,0,5.06-15.18c-34.181-11.393-62.85-10.591-85.211,2.387S157.45,333.285,153.933,344H112a24.027,24.027,0,0,0-24,24v8a8,8,0,0,1-16,0V329.306a8,8,0,0,1,3.778-6.794C92.293,312.4,120,291.354,120,264c0-22.677-26.866-27.562-50.569-31.871-10.386-1.889-21.125-3.841-28.556-6.993C32,221.37,32,217.743,32,216c0-14.383,7.594-32.733,20.315-49.089,14.389-18.5,33.643-32.464,54.215-39.321A8,8,0,0,0,112,120c0-.33.281-31.295,23.112-46.276C140.966,79.526,152,93.925,152,120a7.994,7.994,0,0,0,.845,3.578c1.032,2.065,26.132,50.943,99.906,83.733,43.552,19.356,73.894,38.815,95.486,61.238,27.528,28.586,39.237,60.88,35.8,98.726-3.917,43.091-20,71.706-32.807,88.124-11.02,14.131-21.587,21.939-25.551,24.6Zm278.817-39.512c-27.552,26.271-63.376,35.155-86.633,38.116,18.123-18.178,42.589-52.743,47.783-109.879,8.889-97.779-76.052-147.3-140.718-176.036-29.183-12.97-50.2-28.724-64.729-42.543-5.138-33.108.311-60.061,16.219-80.141,18.933-23.9,48.654-32.912,65.326-36.208a68.332,68.332,0,0,0,.924,34.179c7.248,25.575,28.505,48.133,63.18,67.047,47.677,26.006,80.256,51.4,102.527,79.9C467.8,247.056,480,284.043,480,328,480,376.586,466.144,414.433,438.817,440.488ZM96,176a8,8,0,1,1-8-8A8,8,0,0,1,96,176Z" style="fill:url(#linear-gradient)" fill=""/></g></svg>
