<?xml version="1.0" standalone="no"?>
<!DOCTYPE svg PUBLIC "-//W3C//DTD SVG 20010904//EN"
 "http://www.w3.org/TR/2001/REC-SVG-20010904/DTD/svg10.dtd">
<svg version="1.0" xmlns="http://www.w3.org/2000/svg"
 viewBox="0 0 48.000000 48.000000"
 preserveAspectRatio="xMidYMid meet">
<g transform="translate(0.000000,48.000000) scale(0.050000,-0.050000)"
fill="#000000" stroke="none">
<path d="M420 946 c-27 -4 -89 -22 -136 -39 -79 -28 -89 -28 -122 1 -54 49
-160 -61 -108 -114 32 -31 32 -38 -1 -107 -57 -120 -63 -241 -16 -377 35 -104
36 -124 12 -151 -45 -50 67 -154 114 -107 29 29 38 28 100 -5 93 -50 341 -50
434 0 64 34 68 34 106 1 60 -55 164 49 109 109 -33 37 -33 43 0 106 50 95 49
303 -1 415 -37 81 -37 88 -5 111 46 34 43 52 -18 109 l-50 48 -40 -40 c-39
-38 -43 -39 -114 -5 -80 38 -185 55 -264 45z m206 -133 c407 -170 188 -812
-237 -693 -119 34 -121 42 -28 118 64 53 79 79 79 134 0 101 -81 95 -191 -13
l-83 -82 -28 67 c-122 292 191 593 488 469z"/>
<path d="M326 721 c-119 -73 -182 -244 -93 -257 31 -5 45 7 55 47 60 237 434
167 382 -72 -14 -61 -113 -159 -162 -159 -17 0 -28 -20 -28 -52 0 -114 212 -7
269 135 105 262 -182 505 -423 358z"/>
<path d="M428 580 c-51 -20 -77 -79 -49 -107 13 -13 33 -8 59 15 22 20 49 30
61 23 27 -17 28 -71 1 -71 -11 0 -20 -18 -20 -40 0 -53 50 -51 89 4 74 106
-21 224 -141 176z"/>
</g>
</svg>
