<?xml version="1.0" encoding="UTF-8" standalone="no"?>
<!-- Generator: Adobe Illustrator 16.0.0, SVG Export Plug-In . SVG Version: 6.00 Build 0)  -->

<svg
   version="1.1"
   id="Layer_1"
   x="0px"
   y="0px"
   width="1024"
   height="1024"
   viewBox="78.712 58.488 1024 1024"
   xml:space="preserve"
   sodipodi:docname="sogo-full.svg"
   inkscape:version="1.1 (c4e8f9e, 2021-05-24)"
   inkscape:export-filename="/Users/gillnc01/Library/Application Support/Ferdi/recipes/dev/sogo/sogo-full.png"
   inkscape:export-xdpi="96"
   inkscape:export-ydpi="96"
   xmlns:inkscape="http://www.inkscape.org/namespaces/inkscape"
   xmlns:sodipodi="http://sodipodi.sourceforge.net/DTD/sodipodi-0.dtd"
   xmlns="http://www.w3.org/2000/svg"
   xmlns:svg="http://www.w3.org/2000/svg"><defs
   id="defs7" /><sodipodi:namedview
   id="namedview5"
   pagecolor="#ffffff"
   bordercolor="#999999"
   borderopacity="1"
   inkscape:pageshadow="0"
   inkscape:pageopacity="0"
   inkscape:pagecheckerboard="0"
   showgrid="false"
   inkscape:zoom="0.66245342"
   inkscape:cx="320.0225"
   inkscape:cy="520.03656"
   inkscape:window-width="1792"
   inkscape:window-height="1067"
   inkscape:window-x="0"
   inkscape:window-y="25"
   inkscape:window-maximized="1"
   inkscape:current-layer="Layer_1" />
<path
   style="fill:#50bd37;stroke-width:1.6"
   d="m 990.43762,429.99375 c -15.91523,0 -27.2144,-11.64479 -27.2144,-27.27677 0,-15.64318 11.29917,-27.29117 27.2144,-27.29117 16.03838,0 27.33758,11.64638 27.33758,27.29117 0,15.63198 -11.2992,27.27677 -27.33758,27.27677 z m -0.0475,-81.25751 c -31.50871,0 -53.88629,23.03997 -53.88629,53.98074 0,30.92796 22.37598,53.96634 53.88629,53.96634 31.71528,0 54.09288,-23.03997 54.09288,-53.96634 0,-30.94077 -22.3776,-53.98074 -54.09288,-53.98074 z m -0.0465,135.91985 c -47.82237,0 -81.79673,-34.98877 -81.79673,-81.93911 0,-46.96475 33.97436,-81.93432 81.79673,-81.93432 48.13098,0 82.09108,34.96957 82.09108,81.93432 0,46.95034 -33.9601,81.93911 -82.09108,81.93911 z m -0.0637,-194.16779 c -65.48628,0 -111.99184,47.91355 -111.99184,112.22868 0,64.30234 46.50556,112.19988 111.99184,112.19988 65.91048,0 112.43208,-47.89915 112.43208,-112.19988 0,-64.31513 -46.52,-112.22868 -112.43208,-112.22868 z M 205.83846,491.15048 172.2097,483.13769 c -30.60957,-7.03358 -46.15836,-15.06078 -46.15836,-37.13596 0,-25.09437 25.58398,-35.14395 48.67036,-35.14395 23.46717,0 40.61115,11.72638 50.70874,29.97916 0.0319,0.0768 0.0815,0.1552 0.144,0.25119 0.2032,0.39521 0.4416,0.77441 0.6448,1.1696 l 0.048,-0.0319 c 3.17599,4.80319 8.51678,8.01279 14.27039,8.01279 9.79517,0 16.89278,-7.07999 16.89278,-16.87519 0,-3.7456 -0.80641,-7.71199 -2.5616,-10.70078 -17.22238,-29.28317 -45.62075,-41.90716 -78.14072,-41.90716 -44.15037,0 -86.819109,22.07519 -86.819109,70.74872 0,44.67355 44.167949,57.72634 60.223929,61.72474 l 32.11038,7.536 c 24.58878,6.02078 44.65915,14.06558 44.65915,37.62715 0,27.10077 -28.09758,38.30876 -55.19835,38.30876 -27.59196,0 -48.02395,-14.99199 -62.10234,-35.79196 h -0.016 c -3.1296,-4.79999 -7.98081,-6.9248 -13.923176,-6.9248 -9.574394,0 -17.287985,8.296 -16.93919,17.85919 0.156806,3.90079 1.454399,7.41919 3.444796,10.24798 22.05918,33.01277 53.96474,45.45596 89.53591,45.45596 45.66875,0 91.33589,-21.02879 91.33589,-72.21112 10e-4,-33.10877 -24.58556,-56.64795 -57.20154,-64.18554 z m 224.50056,106.25589 c -54.18554,0 -88.3183,-40.64476 -88.3183,-93.3295 0,-52.70235 34.13276,-93.3487 88.3183,-93.3487 54.70714,0 88.82549,40.64476 88.82549,93.3487 0.001,52.68635 -34.11675,93.3295 -88.82549,93.3295 z m 0,-216.78217 c -72.75353,0 -124.44307,52.68795 -124.44307,123.45267 0,70.74713 51.68954,123.43346 124.44307,123.43346 73.25752,0 124.94865,-52.68633 124.94865,-123.43346 0,-70.76472 -51.68954,-123.45267 -124.94865,-123.45267 z m 352.37722,191.1822 c -1.2336,1.18399 -2.4784,2.35519 -3.8384,3.47998 -1.7696,1.62242 -3.8256,3.37921 -6.16639,5.1328 -14.12639,10.22559 -31.96637,16.15039 -52.82714,16.15039 -54.20155,0 -88.31671,-40.64315 -88.31671,-93.3311 0,-52.70234 34.11516,-93.3471 88.31671,-93.3471 54.69274,0 88.8095,40.64476 88.8095,93.3471 0,27.51358 -9.30559,51.70714 -25.97757,68.56793 z m -80.98866,133.80144 c 4.04479,0 8.23359,-0.26879 12.58078,-0.80639 8.02879,-1.00959 15.34078,-1.4544 21.96638,-1.4544 30.78396,0.1744 46.45754,9.11999 55.90874,19.45278 9.43199,10.39838 13.06878,24.49757 13.05278,36.47356 0.016,5.73759 -0.88799,10.87199 -1.8832,13.95359 -4.7104,14.28797 -14.22078,24.00317 -28.79357,31.32155 -14.45598,7.1744 -33.75196,10.84319 -53.93114,10.8112 -7.22238,0 -14.56799,-0.46079 -21.82238,-1.3296 -13.71678,-1.5792 -31.85756,-7.47359 -45.00795,-17.74878 -6.62078,-5.1184 -10.33279,-11.18559 -14.17277,-18.37598 -3.80641,-7.22239 -4.45281,-15.59678 -4.45281,-26.30717 v -1.1872 c 0,-19.75358 7.74399,-32.87036 17.68159,-42.39995 4.91199,-4.64639 9.10398,-8.10239 12.78398,-10.30079 0.5856,-0.34881 0.7008,-0.6656 1.208,-0.9488 9.75038,5.76799 21.42078,8.89439 34.88157,8.84638 z m 18.15678,-325.81883 c -72.75352,0 -124.45748,52.68634 -124.45748,123.45106 0,47.81915 23.62399,87.3567 61.40474,107.98228 -0.50239,0.5024 -0.9936,1.02561 -1.46559,1.54559 -9.7664,10.6992 -14.76159,24.39998 -14.77758,38.26077 -0.0128,6.1136 0.9984,12.38559 3.16318,18.39037 -4.8992,3.1296 -10.74719,7.4144 -16.73598,13.03519 -14.44158,13.45279 -29.97436,36.06557 -30.43356,67.35513 -0.016,0.7264 -0.016,1.32639 -0.016,1.7888 -0.016,16.11358 3.8064,30.65117 10.33438,42.83835 9.81279,18.34558 25.09279,31.11196 40.86237,39.63196 15.86718,8.53438 32.41115,13.06558 46.83673,14.83838 8.5968,1.0288 17.32159,1.58081 26.02878,1.58081 24.24158,-0.032 48.41756,-4.12481 69.45434,-14.43039 20.93596,-10.144 38.93274,-27.60478 46.70714,-52.09914 2.3088,-7.2848 3.5392,-15.55039 3.5696,-24.68478 -0.032,-18.55198 -5.3584,-41.21436 -22.02718,-59.92314 -16.67358,-18.77438 -44.24635,-31.30556 -82.06071,-31.13435 -8.22079,0 -16.96959,0.56959 -26.28157,1.72478 -3.0032,0.36321 -5.75361,0.5344 -8.2656,0.5344 -11.58239,-0.0768 -17.39517,-3.28479 -20.85757,-6.55679 -3.4128,-3.33439 -5.12,-7.74239 -5.1664,-12.89279 -0.016,-5.24798 2.0544,-10.76318 5.54719,-14.52477 3.5696,-3.7312 8.0128,-6.25599 15.75359,-6.35199 0.6976,0 1.44,0.016 2.1984,0.08 4.96159,0.34559 9.77919,0.52 14.45918,0.52 38.70076,0.0752 67.80793,-11.91679 87.60951,-28.41438 19.86398,-16.49918 30.35356,-36.56636 35.31356,-52.41594 l -0.064,-0.016 c 5.392,-14.23839 8.3152,-29.94397 8.3152,-46.66554 10e-4,-70.76313 -51.68635,-123.44787 -124.94867,-123.44787 z"
   id="path2" />
</svg>
